{"title":"The Twilight Saga Breaking Dawn - Part 2  2012 TS Xvid - TODE","uid":7838782,"size":719708268,"categoryP":"video","categoryS":"movies","magnet":"?xt=urn:btih:57e556cc4e3e130fbf116cdf9279b46fa05cb2bf&amp;dn=The+Twilight+Saga+Breaking+Dawn+-+Part+2++2012+TS+Xvid+-+TODE&amp;tr=udp%3A%2F%2Ftracker.openbittorrent.com%3A80&amp;tr=udp%3A%2F%2Fopen.demonii.com%3A1337&amp;tr=udp%3A%2F%2Ftracker.coppersurfer.tk%3A6969&amp;tr=udp%3A%2F%2Fexodus.desync.com%3A6969","seeders":3,"leechers":0,"uploader":"xxxlavalxxx","files":1,"time":1353271744,"description":" &lt;a href=&quot;http://bayimg.com/iaghMAaEb&quot; rel=&quot;nofollow&quot; target=&quot;_NEW&quot;&gt;http://bayimg.com/iaghMAaEb&lt;/a&gt;\n &lt;a href=&quot;\nhttp://bayimg.com/iaghpaAEB&quot; rel=&quot;nofollow&quot; target=&quot;_NEW&quot;&gt;\nhttp://bayimg.com/iaghpaAEB&lt;/a&gt;\n &lt;a href=&quot;\nhttp://bayimg.com/JAGhBaaeB&quot; rel=&quot;nofollow&quot; target=&quot;_NEW&quot;&gt;\nhttp://bayimg.com/JAGhBaaeB&lt;/a&gt;\n\n\n &lt;a href=&quot;\nhttp://www.imdb.com/title/tt1673434/&quot; rel=&quot;nofollow&quot; target=&quot;_NEW&quot;&gt;\nhttp://www.imdb.com/title/tt1673434/&lt;/a&gt;\n\n\nAfter the birth of Renesmee, the Cullens gather other vampire clans in order to protect the child from a false allegation that puts the family in front of the Volturi.\n \n\n\nDirector: \nBill Condon\n\n Writers: \nMelissa Rosenberg (screenplay), Stephenie Meyer (novel)\n \nStars:\n Kristen Stewart, Robert Pattinson and Taylor Lautner\n\nGenres:\n Adventure | Drama | Fantasy | Romance\n\n\n\n\nFormat                                   : AVI\nFormat/Info                              : Audio Video Interleave\nFile size                                : 686 MiB\nDuration                                 : 1h 44mn\nOverall bit rate                         : 920 Kbps\nWriting application                      : Lavf54.32.100\n\nVideo\nID                                       : 0\nFormat                                   : MPEG-4 Visual\nFormat profile                           : Simple@L3\nFormat settings, BVOP                    : No\nFormat settings, QPel                    : No\nFormat settings, GMC                     : No warppoints\nFormat settings, Matrix                  : Default (H.263)\nCodec ID                                 : XVID\nCodec ID/Hint                            : XviD\nDuration                                 : 1h 44mn\nBit rate                                 : 781 Kbps\nWidth                                    : 640 pixels\nHeight                                   : 288 pixels\nDisplay aspect ratio                     : 2.2:1\nFrame rate                               : 23.976 fps\nColor space                              : YUV\nChroma subsampling                       : 4:2:0\nBit depth                                : 8 bits\nScan type                                : Progressive\nCompression mode                         : Lossy\nBits/(Pixel*Frame)                       : 0.177\nStream size                              : 583 MiB (85%)\nWriting library                          : XviD 64\n\nAudio\nID                                       : 1\nFormat                                   : AC-3\nFormat/Info                              : Audio Coding 3\nMode extension                           : CM (complete main)\nFormat settings, Endianness              : Big\nCodec ID                                 : 2000\nDuration                                 : 1h 44mn\nBit rate mode                            : Constant\nBit rate                                 : 128 Kbps\nChannel(s)                               : 2 channels\nChannel positions                        : Front: L R\nSampling rate                            : 48.0 KHz\nBit depth                                : 16 bits\nCompression mode                         : Lossy\nStream size                              : 95.5 MiB (14%)\nAlignment                                : Aligned on interleaves\nInterleave, duration                     : 32 ms (0.77 video frame)","torrent":{"xt":"urn:btih:57e556cc4e3e130fbf116cdf9279b46fa05cb2bf","amp;dn":"The+Twilight+Saga+Breaking+Dawn+-+Part+2++2012+TS+Xvid+-+TODE","amp;tr":["udp%3A%2F%2Ftracker.openbittorrent.com%3A80","udp%3A%2F%2Fopen.demonii.com%3A1337","udp%3A%2F%2Ftracker.coppersurfer.tk%3A6969","udp%3A%2F%2Fexodus.desync.com%3A6969"],"infoHash":"57e556cc4e3e130fbf116cdf9279b46fa05cb2bf","infoHashBuffer":{"type":"Buffer","data":[87,229,86,204,78,62,19,15,191,17,108,223,146,121,180,111,160,92,178,191]},"announce":[],"urlList":[]}}